<svg xmlns="http://www.w3.org/2000/svg" fill="none" viewBox="0 0 64 64">
  <circle cx="32" cy="32" r="32" fill="#fff"/>
  <g stroke-linecap="round" stroke-linejoin="round">
    <path fill="#fff" stroke="#fff" stroke-width="5" d="M5.577 31.383l-2.165-1.25L15.758 8.75a4.5 4.5 0 013.897-2.25h24.69a4.5 4.5 0 013.897 2.25l12.346 21.383a4.5 4.5 0 010 4.5L48.242 56.015a4.5 4.5 0 01-3.897 2.25h-24.69a4.5 4.5 0 01-3.897-2.25L3.412 34.633m2.165-3.25l-2.165 3.25m2.165-3.25l-2.165-1.25m2.165 1.25l-2.165-1.25m0 4.5a4.5 4.5 0 010-4.5m0 4.5v-4.5"/>
    <path fill="#fff" stroke="#000" stroke-width="3" d="M46.077 54.765l12.346-21.382a2 2 0 000-2L46.077 10a2 2 0 00-1.732-1h-24.69a2 2 0 00-1.732 1L5.577 31.383a2 2 0 000 2l12.346 21.382a2 2 0 001.732 1h24.69a2 2 0 001.732-1z"/>
    <path stroke="#000" stroke-width="3" d="M58.5 32.383H46m-27-23l3 7.5m24 15.5v-22.5l-24 7m24 15.5l-24-15.5m24 15.5l-.5 23-23.5-7.5m24-15.5l-24 15.5m0-31l-16 15.5 16 15.5m0-31v31m-3 7.5l3-7.5"/>
  </g>
</svg>
