<svg xmlns="http://www.w3.org/2000/svg" viewBox="0 0 64 64" fill="none" stroke="currentColor">
  <g stroke-linecap="round" stroke-linejoin="round" stroke-width="2.25">
    <path d="M54.5 33H42M15 10l3 7.5M42 33V10.5l-24 7M42 33L18 17.5M42 33l-.5 23L18 48.5M42 33L18 48.5m0-31L2 33l16 15.5m0-31v31M15 56l3-7.5"/>
    <path d="M42.077 55.383L54.423 34a2 2 0 000-2L42.077 10.617a2 2 0 00-1.732-1h-24.69a2 2 0 00-1.732 1L1.577 32a2 2 0 000 2l12.346 21.383a2 2 0 001.732 1h24.69a2 2 0 001.732-1z"/>
  </g>
</svg>

